<svg width="38" height="63" viewBox="0 0 38 63" fill="none" xmlns="http://www.w3.org/2000/svg">
<path d="M28.887 30.3601C29.7193 28.3921 31.9894 27.4715 33.9573 28.3038C35.9253 29.1362 36.8459 31.4062 36.0136 33.3742L25.1845 58.9789C24.3522 60.9468 22.0822 61.8674 20.1142 61.0351C18.1462 60.2028 17.2256 57.9327 18.0579 55.9648L28.887 30.3601Z" fill="#F27405"/>
<path d="M4.65697 35.3227C2.52024 35.3227 0.788086 33.5905 0.788086 31.4538C0.788086 29.3171 2.52025 27.5849 4.65698 27.5849H32.4575C34.5942 27.5849 36.3264 29.3171 36.3264 31.4538C36.3264 33.5905 34.5942 35.3227 32.4575 35.3227H4.65697Z" fill="#F27405"/>
<path d="M12.3362 3.56331C13.1685 1.59535 15.4386 0.674733 17.4066 1.50705C19.3745 2.33936 20.2951 4.60943 19.4628 6.57739L8.63376 32.1821C7.80145 34.15 5.53138 35.0706 3.56342 34.2383C1.59546 33.406 0.674841 31.1359 1.50716 29.168L12.3362 3.56331Z" fill="#F27405"/>
</svg>
