<svg width="25" height="24" viewBox="0 0 25 24" fill="none" xmlns="http://www.w3.org/2000/svg">
<path d="M22.1014 7.40324L15.8323 6.82181L13.342 1.03915C13.1676 0.634247 12.5935 0.634247 12.4192 1.03915L9.92892 6.82176L3.65979 7.40324C3.22081 7.44393 3.04343 7.98993 3.3746 8.28089L8.10468 12.4362L6.72041 18.5782C6.62347 19.0083 7.08796 19.3457 7.46699 19.1206L12.8806 15.9061L18.2942 19.1206C18.6733 19.3457 19.1377 19.0083 19.0408 18.5782L17.6565 12.4362L22.3866 8.28089C22.7178 7.98993 22.5403 7.44393 22.1014 7.40324Z" fill="#FFDC64"/>
<path d="M14.2475 3.14197L13.3419 1.03915C13.1676 0.634247 12.5935 0.634247 12.4192 1.03915L9.92887 6.82176L3.65979 7.40324C3.22081 7.44393 3.04343 7.98993 3.3746 8.28089L8.10468 12.4362L6.72041 18.5782C6.62347 19.0083 7.08796 19.3457 7.46699 19.1206L8.18751 18.6928C9.36871 11.0465 12.6894 5.4336 14.2475 3.14197Z" fill="#FFC850"/>
</svg>
