<svg width="25" height="24" viewBox="0 0 25 24" fill="none" xmlns="http://www.w3.org/2000/svg">
<path d="M21.5965 7.40324L15.3274 6.82181L12.8371 1.03915C12.6627 0.634247 12.0886 0.634247 11.9143 1.03915L9.42403 6.82176L3.15491 7.40324C2.71592 7.44393 2.53855 7.98993 2.86972 8.28089L7.59979 12.4362L6.21553 18.5782C6.11859 19.0083 6.58307 19.3457 6.96211 19.1206L12.3757 15.9061L17.7893 19.1206C18.1684 19.3457 18.6328 19.0083 18.5359 18.5782L17.1516 12.4362L21.8817 8.28089C22.2129 7.98993 22.0354 7.44393 21.5965 7.40324Z" fill="#FFDC64"/>
<path d="M13.7426 3.14197L12.8371 1.03915C12.6627 0.634247 12.0886 0.634247 11.9143 1.03915L9.42399 6.82176L3.15491 7.40324C2.71592 7.44393 2.53855 7.98993 2.86972 8.28089L7.59979 12.4362L6.21553 18.5782C6.11859 19.0083 6.58307 19.3457 6.96211 19.1206L7.68262 18.6928C8.86383 11.0465 12.1846 5.4336 13.7426 3.14197Z" fill="#FFC850"/>
</svg>
