<svg width="24" height="24" viewBox="0 0 24 24" fill="none" xmlns="http://www.w3.org/2000/svg">
<path d="M21.221 7.40331L14.9519 6.82187L12.4616 1.03921C12.2872 0.634308 11.7132 0.634308 11.5388 1.03921L9.04854 6.82182L2.77942 7.40331C2.34044 7.44399 2.16306 7.98999 2.49423 8.28095L7.22431 12.4362L5.84004 18.5782C5.7431 19.0083 6.20759 19.3457 6.58662 19.1207L12.0002 15.9062L17.4138 19.1207C17.7929 19.3458 18.2573 19.0083 18.1604 18.5782L16.7761 12.4362L21.5062 8.28095C21.8374 7.98999 21.66 7.44399 21.221 7.40331Z" fill="#FFDC64"/>
<path d="M13.3671 3.14203L12.4616 1.03921C12.2872 0.634308 11.7131 0.634308 11.5388 1.03921L9.0485 6.82182L2.77942 7.40331C2.34044 7.44399 2.16306 7.99 2.49423 8.28095L7.22431 12.4362L5.84004 18.5782C5.7431 19.0083 6.20759 19.3457 6.58662 19.1207L7.30713 18.6928C8.48834 11.0466 11.8091 5.43366 13.3671 3.14203Z" fill="#FFC850"/>
</svg>
