<svg width="22" height="19" viewBox="0 0 22 19" fill="none" xmlns="http://www.w3.org/2000/svg">
<path d="M20.455 13.0319H6.5151L7.21503 11.6731L18.8445 11.653C19.2378 11.653 19.5749 11.3852 19.6451 11.0148L21.2556 2.42206C21.2977 2.1967 21.2345 1.96464 21.08 1.78837C21.0037 1.70161 20.9084 1.63173 20.8009 1.58357C20.6934 1.53541 20.5762 1.51012 20.4574 1.50945L5.66303 1.46259L5.53662 0.89584C5.45703 0.534367 5.11526 0.271072 4.72667 0.271072H1.11002C0.890865 0.271072 0.680684 0.354057 0.525718 0.501771C0.370751 0.649484 0.283691 0.849827 0.283691 1.05873C0.283691 1.26762 0.370751 1.46797 0.525718 1.61568C0.680684 1.76339 0.890865 1.84638 1.11002 1.84638H4.05718L4.60963 4.34991L5.96968 10.6266L4.2187 13.351C4.12777 13.468 4.073 13.6069 4.06059 13.752C4.04818 13.8971 4.07863 14.0427 4.14848 14.1722C4.28893 14.4377 4.57218 14.605 4.88585 14.605H6.35592C6.04252 15.0018 5.87325 15.4851 5.8737 15.9817C5.8737 17.2447 6.95051 18.2711 8.27544 18.2711C9.60038 18.2711 10.6772 17.2447 10.6772 15.9817C10.6772 15.4842 10.504 15 10.195 14.605H13.9661C13.6527 15.0018 13.4834 15.4851 13.4839 15.9817C13.4839 17.2447 14.5607 18.2711 15.8856 18.2711C17.2106 18.2711 18.2874 17.2447 18.2874 15.9817C18.2874 15.4842 18.1141 15 17.8052 14.605H20.4574C20.9115 14.605 21.2837 14.2525 21.2837 13.8174C21.2823 13.6087 21.1944 13.409 21.0392 13.2619C20.884 13.1147 20.674 13.0321 20.455 13.0319ZM6.00713 3.01559L19.4859 3.05798L18.1656 10.1045L7.57786 10.1223L6.00713 3.01559ZM8.27544 16.6868C7.86813 16.6868 7.53573 16.37 7.53573 15.9817C7.53573 15.5935 7.86813 15.2767 8.27544 15.2767C8.68276 15.2767 9.01516 15.5935 9.01516 15.9817C9.01516 16.1687 8.93723 16.3481 8.7985 16.4803C8.65978 16.6126 8.47163 16.6868 8.27544 16.6868ZM15.8856 16.6868C15.4783 16.6868 15.1459 16.37 15.1459 15.9817C15.1459 15.5935 15.4783 15.2767 15.8856 15.2767C16.2929 15.2767 16.6253 15.5935 16.6253 15.9817C16.6253 16.1687 16.5474 16.3481 16.4087 16.4803C16.27 16.6126 16.0818 16.6868 15.8856 16.6868Z" fill="white"/>
</svg>
